<svg xmlns="http://www.w3.org/2000/svg" xmlns:xlink="http://www.w3.org/1999/xlink" width="80" height="32" version="1.1" style=""><rect id="backgroundrect" width="100%" height="100%" x="0" y="0" fill="none" stroke="none" class="" style=""/>

<g class="currentLayer" style=""><title>Layer 1</title><g id="surface1" class="">
<path style=" stroke:none;fill-rule:nonzero;fill:rgb(100%,100%,100%);fill-opacity:1;" d="M207.0000002,13.714844 L31.8125002,13.714844 C30.6718752,5.941406 24.0507812,0 15.984375199999999,0 C7.1562502,0 -5.828670879282072e-16,7.160156 -5.828670879282072e-16,16 C-5.828670879282072e-16,24.839844 7.1562502,32 15.984375199999999,32 C24.0507812,32 30.6718752,26.058594 31.8125002,18.285156 L207.0000002,18.285156 zM15.984375199999999,27.429688 C9.6679692,27.429688 4.566406199999999,22.324219 4.566406199999999,16 C4.566406199999999,9.675781 9.6679692,4.5703119999999995 15.984375199999999,4.5703119999999995 C22.3007812,4.5703119999999995 27.3984372,9.675781 27.3984372,16 C27.3984372,22.324219 22.3007812,27.429688 15.984375199999999,27.429688 zM15.984375199999999,27.429688 " id="svg_1"/>
</g></g></svg>