<?xml version="1.0" encoding="UTF-8"?>
<svg xmlns="http://www.w3.org/2000/svg" xmlns:xlink="http://www.w3.org/1999/xlink" width="210px" height="32px" viewBox="0 0 207 32" version="1.1">
<g id="surface1">
<path style=" stroke:none;fill-rule:nonzero;fill:rgb(100%,100%,100%);fill-opacity:1;" d="M 207.074219 13.714844 L 31.886719 13.714844 C 30.746094 5.941406 24.125 0 16.058594 0 C 7.230469 0 0.0742188 7.160156 0.0742188 16 C 0.0742188 24.839844 7.230469 32 16.058594 32 C 24.125 32 30.746094 26.058594 31.886719 18.285156 L 207.074219 18.285156 Z M 16.058594 27.429688 C 9.742188 27.429688 4.640625 22.324219 4.640625 16 C 4.640625 9.675781 9.742188 4.570312 16.058594 4.570312 C 22.375 4.570312 27.472656 9.675781 27.472656 16 C 27.472656 22.324219 22.375 27.429688 16.058594 27.429688 Z M 16.058594 27.429688 "/>
</g>
</svg>
