<svg width="193" height="115" viewBox="0 0 193 115" fill="none" xmlns="http://www.w3.org/2000/svg">
<g clip-path="url(#clip0_359_41)">
<path d="M0 81.2178H14.8321C18.2121 81.2178 20.8188 81.9518 22.6522 83.4198C24.4856 84.8878 25.395 86.9969 25.3806 89.7472C25.4277 91.3315 24.9188 92.8822 23.9425 94.1295C22.8772 95.4002 21.4366 96.2993 19.8283 96.697C22.0614 97.2366 23.7847 98.194 24.9982 99.5692C26.2193 100.975 26.8676 102.789 26.8142 104.652C26.8142 107.751 25.7223 110.131 23.5385 111.793C21.3547 113.456 18.2208 114.285 14.137 114.283H0V81.2178ZM13.1551 95.113C13.9916 95.1676 14.8163 94.8927 15.4534 94.3471C15.7355 94.0632 15.954 93.7222 16.0941 93.347C16.2342 92.9717 16.2927 92.5709 16.2658 92.1712C16.2904 91.7848 16.2304 91.3976 16.0901 91.0368C15.9498 90.676 15.7325 90.3503 15.4534 90.0823C14.802 89.5671 13.9834 89.3113 13.1551 89.3643H10.0488V95.113H13.1551ZM13.1551 106.136C14.046 106.196 14.9286 105.932 15.6402 105.392C15.9316 105.132 16.1609 104.809 16.3113 104.449C16.4617 104.088 16.5293 103.698 16.5091 103.307C16.5315 102.906 16.4652 102.505 16.315 102.133C16.1648 101.761 15.9344 101.426 15.6402 101.153C14.934 100.597 14.0467 100.324 13.1508 100.387H10.0488V106.136H13.1551Z" fill="white"/>
<path d="M33.5395 114.378C32.0747 114.035 30.6819 113.435 29.4253 112.607L29.9032 105.644C31.3731 106.558 32.9685 107.251 34.6387 107.702C36.232 108.222 37.8905 108.515 39.5654 108.573C40.9382 108.573 41.6246 108.172 41.6246 107.372C41.6103 107.137 41.5284 106.911 41.3889 106.722C41.2493 106.533 41.0581 106.388 40.8383 106.305C40.242 106.004 39.6178 105.762 38.9745 105.583C38.2533 105.38 37.7667 105.245 37.5147 105.178C35.4311 104.601 33.4526 103.695 31.654 102.493C30.1682 101.44 29.4267 99.8589 29.4296 97.7498C29.4296 95.2257 30.2102 93.3559 31.7713 92.1403C33.3324 90.9247 35.4699 90.3184 38.1838 90.3213C41.0222 90.3213 44.324 90.9596 48.0893 92.2361L47.607 98.7072C46.1977 98.0718 44.7461 97.5353 43.2625 97.1014C41.9714 96.6676 40.6261 96.4171 39.2656 96.3572C38.1186 96.3572 37.5278 96.6966 37.5278 97.3668C37.5287 97.5449 37.5843 97.7185 37.6868 97.864C37.7894 98.0095 37.934 98.12 38.1013 98.1806C38.5745 98.4042 39.0715 98.5735 39.5827 98.6854C40.191 98.829 40.6515 98.9465 40.973 99.0423C43.0459 99.6093 45.0042 100.534 46.7598 101.775C48.2572 102.892 49.0074 104.585 49.0103 106.854C49.0103 109.569 48.0371 111.6 46.0908 112.946C44.1445 114.292 41.6406 114.971 38.5792 114.983C36.8806 114.993 35.1875 114.79 33.5395 114.378Z" fill="white"/>
<path d="M68.0826 113.756C66.5279 114.561 64.8058 114.987 63.056 115.001C60.2494 115.001 58.0888 114.299 56.574 112.895C55.0592 111.49 54.3033 109.477 54.3062 106.854V97.7503H50.9565L52.3946 91.0399H54.3062V83.3721H62.4391V91.0399H66.7445V97.7503H62.4391V106.376C62.4391 107.875 63.2051 108.627 64.7373 108.63C65.3352 108.662 65.9317 108.546 66.4751 108.295L68.0826 113.756Z" fill="white"/>
<path d="M88.4151 92.719C90.0747 94.3147 90.9045 96.6356 90.9045 99.6819V114.299H83.9186L83.4407 111.71C82.6233 112.759 81.5751 113.605 80.3778 114.182C79.18 114.742 77.8723 115.028 76.5503 115.018C74.4447 115.018 72.8024 114.411 71.6236 113.198C70.4448 111.986 69.854 110.325 69.8511 108.216C69.8511 105.37 70.9676 103.194 73.2007 101.688C75.4338 100.182 78.6197 99.4309 82.7586 99.4338V98.4286C82.7586 97.1839 81.6913 96.5616 79.5567 96.5616C78.355 96.569 77.1582 96.715 75.9899 96.9968C74.687 97.3047 73.4147 97.73 72.1884 98.2675L70.7026 92.7582C72.2623 91.9319 73.9292 91.3271 75.6553 90.9609C77.4355 90.5412 79.2572 90.3237 81.0859 90.3125C84.3154 90.3183 86.7584 91.1205 88.4151 92.719ZM82.7673 108.246V103.498C81.3017 103.498 80.1779 103.771 79.3959 104.317C79.0117 104.581 78.702 104.94 78.4965 105.359C78.2911 105.779 78.1969 106.244 78.2229 106.71C78.1904 107.375 78.4126 108.027 78.8442 108.533C79.0753 108.765 79.3528 108.944 79.6585 109.06C79.9641 109.175 80.2907 109.224 80.6167 109.204C81.0243 109.219 81.43 109.14 81.8027 108.974C82.1754 108.808 82.5053 108.559 82.7673 108.246Z" fill="white"/>
<path d="M117.119 79.2988V114.283H110.424L109.607 110.975C108.9 112.221 107.9 113.275 106.692 114.043C105.558 114.695 104.268 115.026 102.96 115.001C101.705 115.043 100.46 114.764 99.3423 114.19C98.2249 113.615 97.272 112.765 96.5738 111.72C95.0243 109.529 94.2495 106.438 94.2495 102.446C94.2495 98.5467 95.0156 95.5513 96.5477 93.4595C98.0799 91.3677 100.313 90.3219 103.247 90.3219C104.379 90.3075 105.504 90.4947 106.571 90.8746C107.491 91.1853 108.321 91.719 108.986 92.4281V79.2988H117.119ZM108.986 107.237V98.0376C108.236 97.3727 107.264 97.014 106.262 97.0323C105.724 97.0104 105.191 97.1318 104.715 97.3841C104.24 97.6364 103.839 98.0106 103.555 98.4684C102.934 99.4258 102.626 100.818 102.626 102.637C102.626 104.456 102.934 105.858 103.555 106.833C103.836 107.295 104.235 107.675 104.711 107.932C105.186 108.189 105.722 108.314 106.262 108.295C107.272 108.308 108.249 107.929 108.986 107.237Z" fill="white"/>
<path d="M121.376 84.7119C121.376 83.4354 121.728 82.462 122.432 81.7918C123.132 81.1217 124.17 80.7822 125.473 80.7822C126.777 80.7822 127.837 81.1217 128.514 81.7918C129.192 82.462 129.57 83.4368 129.57 84.7119C129.57 87.3229 128.197 88.6285 125.452 88.6285C122.706 88.6285 121.347 87.3229 121.376 84.7119ZM121.424 91.0394H129.561V114.282H121.424V91.0394Z" fill="white"/>
<path d="M154.725 91.04V114.283H148.026L147.452 111.023C146.467 112.195 145.292 113.193 143.976 113.974C142.749 114.662 141.364 115.016 139.958 115.001C138.075 115.001 136.56 114.45 135.413 113.347C134.834 112.785 134.38 112.107 134.08 111.357C133.781 110.607 133.643 109.803 133.676 108.995V91.04H141.809V105.401C141.778 106.032 141.982 106.653 142.382 107.142C142.569 107.363 142.804 107.538 143.069 107.655C143.334 107.772 143.622 107.827 143.911 107.816C144.404 107.792 144.883 107.642 145.302 107.381C145.813 107.096 146.258 106.704 146.605 106.232V91.04H154.725Z" fill="white"/>
<path d="M191.275 91.9756C191.855 92.5369 192.31 93.2149 192.61 93.965C192.909 94.7151 193.047 95.5202 193.013 96.3274V114.3H184.867V99.9394C184.897 99.3081 184.693 98.688 184.294 98.1987C184.105 97.978 183.869 97.8031 183.604 97.687C183.338 97.5709 183.05 97.5167 182.76 97.5285C182.268 97.5526 181.791 97.7024 181.374 97.9637C180.86 98.2459 180.415 98.6382 180.071 99.1125V114.305H171.946V99.9437C171.976 99.3125 171.772 98.6924 171.373 98.203C171.185 97.9825 170.95 97.8075 170.685 97.6914C170.421 97.5753 170.133 97.5211 169.844 97.5328C169.352 97.5564 168.875 97.7062 168.458 97.968C167.945 98.2518 167.501 98.6438 167.154 99.1169V114.309H159.03V91.04H165.729L166.303 94.2995C167.288 93.1287 168.463 92.1327 169.779 91.3533C171.004 90.6619 172.39 90.3061 173.797 90.322C175.139 90.2781 176.463 90.6373 177.599 91.3533C178.63 92.0355 179.386 93.0627 179.732 94.2516C180.343 93.0292 181.332 92.0372 182.551 91.4229C183.822 90.7068 185.255 90.3278 186.713 90.322C188.605 90.322 190.125 90.8732 191.275 91.9756Z" fill="white"/>
<path d="M70.3028 60.4901C74.7907 59.1541 75.829 59.1019 78.5921 59.4849C80.2706 59.7183 81.9632 59.8346 83.6578 59.833L119.152 59.8896C120.639 59.9039 122.123 59.7491 123.575 59.4283C137.721 56.2123 137.686 39.9323 134.436 33.1044C133.297 30.7791 131.387 28.9224 129.032 27.8518C137.286 23.0649 136.244 7.89023 129.292 2.96838C126.469 0.683696 122.198 0.113614 118.722 0.0309298C116.598 0.000467417 114.634 0.000467418 112.41 0.113614C110.363 0.231111 108.235 0.418238 106.327 1.23637C103.868 2.29385 102.383 4.22169 100.68 6.17128C99.2068 7.84236 97.2822 10.1488 94.8449 10.1923C83.3407 10.3882 63.1605 10.6014 61.5443 10.1923V20.6366C62.3133 20.3842 75.6857 20.9934 84.0532 20.5234C86.5819 20.395 89.0133 19.5063 91.0304 17.9733C91.5231 17.6006 91.9618 17.1613 92.3338 16.6678C96.0136 11.5501 99.2155 10.5187 102.691 10.4752H118.827C119.688 10.4752 120.541 10.6454 121.337 10.976C122.132 11.3066 122.855 11.7911 123.464 12.4019C124.072 13.0127 124.555 13.7377 124.883 14.5354C125.212 15.3331 125.38 16.1878 125.378 17.0507V17.2248C125.37 18.9536 124.681 20.6092 123.461 21.8317C122.24 23.0541 120.587 23.7444 118.861 23.7525C113.604 23.7525 100.81 23.7742 95.9875 23.7525C87.9024 23.7525 87.09 32.9303 80.9729 32.9608C69.0169 33.013 67.1748 32.9608 58.3815 32.9608C58.438 32.9608 58.3815 41.8123 58.3815 42.674C84.4746 44.0404 76.3026 38.1003 83.8794 34.5623C85.4555 33.8707 87.1641 33.5349 88.8843 33.5788H118.961C121.012 33.6229 122.964 34.469 124.401 35.9361C125.837 37.4032 126.643 39.3749 126.647 41.4297C126.651 43.4845 125.852 45.4593 124.422 46.932C122.991 48.4046 121.042 49.2583 118.992 49.3104C111.875 49.3409 94.4843 49.3104 85.943 49.3104C67.5745 49.367 78.3619 58.7712 61.8832 58.8408C59.9412 58.8408 57.7081 58.9801 55.1318 58.9583V68.8586C64.3682 69.6376 64.9547 61.9741 70.3376 60.377" fill="white"/>
</g>
<defs>
<clipPath id="clip0_359_41">
<rect width="193" height="115" fill="white"/>
</clipPath>
</defs>
</svg>
