<svg width="84" height="84" viewBox="0 0 84 84" fill="none" xmlns="http://www.w3.org/2000/svg">
<path d="M77.718 19.4245C65.1526 -0.000642126 39.4983 -5.77568 19.6031 6.29941C0.231481 18.3745 -6.05121 44.6247 6.51417 64.0499L7.56128 65.6249L3.37283 81.375L19.0795 77.1749L20.6502 78.225C27.4565 81.9 34.7863 84 42.1161 84C49.9694 84 57.8228 81.9 64.629 77.7C84.0006 65.0999 89.7598 39.3747 77.718 19.4245ZM66.7233 59.8498C64.629 62.9998 62.0112 65.0999 58.3463 65.6249C56.2521 65.6249 53.6343 66.6749 43.1632 62.4748C34.2627 58.2748 26.9329 51.4498 21.6973 43.5747C18.556 39.8997 16.9853 35.1746 16.4618 30.4496C16.4618 26.2496 18.0324 22.5745 20.6502 19.9495C21.6973 18.8995 22.7444 18.3745 23.7916 18.3745H26.4093C27.4565 18.3745 28.5036 18.3745 29.0271 20.4745C30.0742 23.0995 32.692 29.3996 32.692 29.9246C33.2156 30.4496 33.2156 31.4996 32.692 32.0246C33.2156 33.0746 32.692 34.1246 32.1685 34.6496C31.6449 35.1746 31.1214 36.2246 30.5978 36.7496C29.5507 37.2746 29.0271 38.3246 29.5507 39.3747C31.6449 42.5247 34.2627 45.6747 36.8805 48.2997C40.0218 50.9247 43.1632 53.0248 46.8281 54.5998C47.8752 55.1248 48.9223 55.1248 49.4459 54.0748C49.9694 53.0248 52.5872 50.3997 53.6343 49.3497C54.6814 48.2997 55.205 48.2997 56.2521 48.8247L64.629 53.0248C65.6761 53.5498 66.7233 54.0748 67.2468 54.5998C67.7704 56.1748 67.7704 58.2748 66.7233 59.8498Z" fill="white"/>
</svg>
