<svg width="51" height="52" viewBox="0 0 51 52" fill="none" xmlns="http://www.w3.org/2000/svg">
<g clip-path="url(#clip0_363_1487)">
<path d="M38.0376 19.8611C37.6674 19.7051 37.2428 19.8845 37.0896 20.2622L35.4684 24.2607L33.8473 20.2622C33.6941 19.8846 33.2696 19.7048 32.8992 19.8611C32.5287 20.0172 32.3525 20.4499 32.5057 20.8276L34.7609 26.3897C35.0144 27.0149 35.9315 26.9928 36.1759 26.3897L38.4311 20.8276C38.5843 20.4499 38.4081 20.0172 38.0376 19.8611ZM43.0006 24.0923C45.067 22.985 44.2769 19.8049 41.9669 19.8049H40.1317C39.7309 19.8049 39.4059 20.1362 39.4059 20.5449V26.1605C39.4059 26.5693 39.7308 26.9005 40.1317 26.9005C40.5325 26.9005 40.8575 26.5692 40.8575 26.1605V24.3522H41.4291L42.8655 26.5685C43.0864 26.9094 43.5368 27.0034 43.8712 26.7779C44.2056 26.5526 44.2976 26.0936 44.0765 25.7525L43.0006 24.0923ZM41.9669 22.8722H40.8575V21.285H41.9669C42.3961 21.285 42.7453 21.6411 42.7453 22.0786C42.7453 22.5161 42.3961 22.8722 41.9669 22.8722ZM5.96879 26.27C5.56797 26.27 5.24304 26.6013 5.24304 27.0101V28.1716C5.24304 28.5804 5.56797 28.9117 5.96879 28.9117C6.36962 28.9117 6.69465 28.5804 6.69465 28.1716V27.0101C6.69465 26.6013 6.36962 26.27 5.96879 26.27ZM9.538 18.3224C7.04926 18.3224 5.24294 20.1641 5.24294 22.7017V24.4933C5.24294 24.9021 5.56787 25.2334 5.96869 25.2334C6.36952 25.2334 6.69455 24.9021 6.69455 24.4933V22.7017C6.69455 21.2586 7.5737 19.8026 9.538 19.8026C9.93882 19.8026 10.2638 19.4713 10.2638 19.0625C10.2638 18.6537 9.93882 18.3224 9.538 18.3224ZM49.1624 22.2639H48.4299C48.3841 18.5789 45.4313 15.595 41.8064 15.595H30.448V14.8503C30.448 13.8171 29.6236 12.9766 28.6104 12.9766H22.3896C21.3764 12.9766 20.552 13.8171 20.552 14.8503V15.595H9.19365C5.56876 15.595 2.61604 18.579 2.57012 22.2639H1.83759C0.824367 22.2639 0 23.1045 0 24.1377V30.4805C0 31.5135 0.824367 32.3541 1.83769 32.3541H2.57022C2.61604 36.0392 5.56876 39.0231 9.19375 39.0231H20.2072C21.7216 39.0231 22.9537 37.7669 22.9537 36.2228C22.9537 35.442 23.5765 34.8069 24.3422 34.8069H26.6579C27.4236 34.8069 28.0464 35.4421 28.0464 36.2228C28.0464 37.7669 29.2785 39.0231 30.7929 39.0231H41.8064C45.4313 39.0231 48.3841 36.0392 48.4299 32.3541H49.1624C50.1756 32.3541 51 31.5135 51 30.4805V24.1377C51 23.1045 50.1756 22.2639 49.1624 22.2639ZM2.56803 30.8739H1.83769C1.62483 30.8739 1.45161 30.6974 1.45161 30.4804V24.1376C1.45161 23.9205 1.62483 23.7439 1.83769 23.7439H2.56803V30.8739ZM22.0036 14.8503C22.0036 14.6332 22.1768 14.4566 22.3896 14.4566H28.6104C28.8233 14.4566 28.9964 14.6332 28.9964 14.8503V15.595H22.0036V14.8503ZM46.9677 32.2675C46.9677 35.1693 44.6523 37.5301 41.8064 37.5301H30.7929C30.0859 37.5301 29.5107 36.9436 29.5107 36.2227C29.5107 34.6187 28.2309 33.3138 26.6578 33.3138H24.3421C22.7691 33.3138 21.4892 34.6187 21.4892 36.2227C21.4892 36.9436 20.9141 37.5301 20.207 37.5301H9.19365C6.34771 37.5301 4.03229 35.1693 4.03229 32.2675V22.3505C4.03229 19.4487 6.34771 17.0879 9.19365 17.0879H41.8064C44.6523 17.0879 46.9677 19.4487 46.9677 22.3505V32.2675ZM49.5484 30.4805C49.5484 30.6975 49.3752 30.874 49.1624 30.874H48.4321V23.7441H49.1624C49.3753 23.7441 49.5484 23.9207 49.5484 24.1378V30.4805Z" fill="white"/>
</g>
<defs>
<clipPath id="clip0_363_1487">
<rect width="51" height="52" fill="white"/>
</clipPath>
</defs>
</svg>
