<svg width="51" height="51" viewBox="0 0 51 51" fill="none" xmlns="http://www.w3.org/2000/svg">
<g clip-path="url(#clip0_363_1504)">
<path d="M20.5852 41.1239H10.7319C9.33678 41.1239 8.20176 39.9889 8.20176 38.5937V35.8231C8.42311 35.8746 8.65038 35.9032 8.88115 35.9032C8.98611 35.9032 9.09177 35.8977 9.19753 35.8867C9.37116 35.8688 9.54078 35.8354 9.70549 35.7893V38.5937C9.70549 39.1597 10.1659 39.6202 10.7319 39.6202H20.3878C20.803 39.6202 21.1397 39.2836 21.1397 38.8683C21.1397 38.453 20.803 38.1164 20.3878 38.1164H11.2092V34.8077C11.2142 34.8016 11.2195 34.7959 11.2246 34.7898C11.7317 34.1653 11.9653 33.3808 11.8823 32.5807C11.8086 31.8699 11.4924 31.2227 10.985 30.7315C11.4793 30.546 11.9179 30.2324 12.2595 29.8116C13.2495 28.5926 13.1263 26.8271 12.0195 25.7536C12.514 25.568 12.9526 25.2544 13.2944 24.8336C13.8015 24.2091 14.035 23.4246 13.952 22.6245C13.869 21.8245 13.4795 21.1045 12.855 20.5975L11.2092 19.261V11.7377C11.2092 11.3224 10.8726 10.9858 10.4574 10.9858C10.0421 10.9858 9.70549 11.3224 9.70549 11.7377V18.044C9.26129 17.7129 8.74411 17.5141 8.20176 17.4622V4.03391C8.20176 2.63875 9.33688 1.50373 10.732 1.50373H27.4647C28.8599 1.50373 29.9949 2.63875 29.9949 4.03391V17.9079C29.9949 18.3232 30.3316 18.6598 30.7468 18.6598C31.162 18.6598 31.4986 18.3232 31.4986 17.9079V4.03391C31.4985 1.80959 29.689 0 27.4646 0H10.732C8.50772 0 6.69803 1.80959 6.69803 4.03391V9.80161C6.14586 9.474 5.50588 9.33245 4.85587 9.39982C4.05578 9.48282 3.33589 9.87239 2.82884 10.4968C2.32178 11.1213 2.0882 11.9058 2.17121 12.7059C2.25421 13.5059 2.64378 14.2259 3.26813 14.7329L6.69803 17.5183V17.7018C6.26396 17.8918 5.8783 18.1832 5.57094 18.5616C5.06388 19.1861 4.8303 19.9706 4.91331 20.7707C4.98699 21.4815 5.30317 22.1286 5.81063 22.6198C5.31631 22.8054 4.87782 23.1189 4.53607 23.5397C3.54561 24.7594 3.66942 26.526 4.77767 27.5994C4.29367 27.7808 3.84997 28.0883 3.50131 28.5177C2.99415 29.1422 2.76057 29.9267 2.84357 30.7268C2.92658 31.5268 3.31615 32.2468 3.94049 32.7539L6.69803 34.9932V38.5936C6.69803 40.8179 8.50762 42.6275 10.7319 42.6275H20.5852C21.0004 42.6275 21.337 42.291 21.337 41.8757C21.337 41.4603 21.0004 41.1239 20.5852 41.1239ZM4.21608 13.5655C3.9034 13.3117 3.70842 12.9513 3.66682 12.5507C3.62521 12.1501 3.7422 11.7574 3.99613 11.4447C4.24996 11.1321 4.61036 10.9371 5.01105 10.8954C5.41124 10.854 5.80442 10.9708 6.11699 11.2247L6.69803 11.6966V15.581L4.21608 13.5655ZM6.73833 19.5095C6.99216 19.1969 7.35256 19.0019 7.75325 18.9602C7.80618 18.9547 7.85901 18.952 7.91164 18.952C8.2563 18.952 8.58802 19.0693 8.8593 19.2895L11.9073 21.7646C12.2198 22.0184 12.4149 22.3788 12.4565 22.7794C12.498 23.18 12.3811 23.5728 12.1272 23.8854C11.8734 24.198 11.513 24.393 11.1123 24.4347C10.7282 24.4745 10.3519 24.3671 10.0458 24.1344L6.95838 21.6303C6.6457 21.3764 6.45072 21.016 6.40912 20.6154C6.36751 20.2148 6.4844 19.8222 6.73833 19.5095ZM5.70347 24.4876C5.9573 24.1751 6.31769 23.9801 6.71838 23.9384C7.10224 23.8986 7.47867 24.0059 7.78473 24.2386L10.8723 26.7428C11.5177 27.2669 11.6163 28.2184 11.0922 28.8637C10.8384 29.1763 10.478 29.3714 10.0773 29.413C9.69377 29.4526 9.31793 29.3457 9.01207 29.1136L5.92341 26.6086C5.27801 26.0845 5.17937 25.133 5.70347 24.4876ZM4.6686 29.4658C4.96614 29.0994 5.40152 28.9091 5.84041 28.9091C6.15679 28.9091 6.47448 29.0094 6.74415 29.2122L9.83732 31.7209C10.15 31.9747 10.345 32.3352 10.3866 32.7358C10.4282 33.1363 10.3112 33.5291 10.0573 33.8417C9.80344 34.1543 9.44294 34.3494 9.04235 34.391C8.64196 34.4324 8.24908 34.3155 7.93641 34.0617L4.88845 31.5866C4.24315 31.0625 4.1445 30.1111 4.6686 29.4658Z" fill="white"/>
<path d="M27.7393 15.6973C28.1545 15.6973 28.4912 15.3608 28.4912 14.9454V4.03426C28.4912 3.46825 28.0307 3.00781 27.4647 3.00781H25.4582C24.8056 3.00781 24.2093 3.33262 23.8633 3.87687C23.507 4.43716 22.8985 4.77159 22.2356 4.77159H16.0244C15.3615 4.77159 14.753 4.43706 14.3967 3.87687C14.0506 3.33262 13.4545 3.00781 12.8017 3.00781H10.732C10.166 3.00781 9.70557 3.46835 9.70557 4.03426V8.53382C9.70557 8.94915 10.0422 9.28568 10.4574 9.28568C10.8727 9.28568 11.2093 8.94915 11.2093 8.53382V4.51154H12.8017C12.9353 4.51154 13.0603 4.57751 13.1278 4.68377C13.7615 5.68034 14.8444 6.27532 16.0243 6.27532H22.2355C23.4156 6.27532 24.4984 5.68034 25.1321 4.68387C25.1997 4.57751 25.3246 4.51154 25.4582 4.51154H26.9874V14.9454C26.9874 15.3608 27.3241 15.6973 27.7393 15.6973Z" fill="white"/>
<path d="M48.6666 49.7616L39.5148 38.9958C39.3516 38.8038 39.2617 38.5593 39.2617 38.3071V34.4362C39.2617 31.7246 38.2375 29.1446 36.3777 27.1713L26.9796 17.2004C26.6133 16.8117 26.0967 16.5925 25.563 16.605C25.029 16.6153 24.5213 16.852 24.1704 17.2545L23.9842 17.468C22.4223 19.2589 22.3492 21.9189 23.8102 23.7931L27.2938 28.2617C27.5182 28.5495 27.5465 28.9404 27.3657 29.2575L26.5179 30.7449C26.3123 31.1057 26.438 31.5648 26.7988 31.7703C27.1594 31.9759 27.6186 31.8503 27.8242 31.4894L28.6721 30.002C29.1557 29.1535 29.0803 28.1075 28.4799 27.3371L24.9962 22.8685C23.977 21.5612 24.0281 19.7056 25.1176 18.4564L25.3038 18.2429C25.4033 18.1287 25.5271 18.1096 25.5921 18.1083C25.6567 18.1055 25.7815 18.1215 25.8853 18.2316L35.2833 28.2027C36.8791 29.8958 37.758 32.1095 37.758 34.4361V38.307C37.758 38.9155 37.975 39.506 38.3692 39.9696L47.521 50.7355C47.6697 50.9104 47.8813 51.0004 48.0942 51.0004C48.2663 51.0004 48.4394 50.9417 48.5808 50.8214C48.8971 50.5525 48.9355 50.0779 48.6666 49.7616Z" fill="white"/>
<path d="M30.2567 47.6714C30.1399 47.519 29.9694 47.4171 29.7799 47.3865C27.1659 46.9639 25.0518 44.9373 24.519 42.3435L24.242 40.9941C23.9284 39.4673 24.1808 37.8807 24.9527 36.5265L26.2374 34.2726C26.443 33.9118 26.3173 33.4527 25.9565 33.2472C25.5959 33.0417 25.1366 33.1673 24.9311 33.5281L23.6464 35.782C22.6935 37.4535 22.3819 39.4121 22.769 41.2967L23.0461 42.6462C23.6831 45.748 26.1522 48.1927 29.2397 48.8165L30.6875 50.7055C30.8356 50.8987 31.059 51 31.2848 51C31.4444 51 31.6052 50.9494 31.7417 50.8448C32.0713 50.5922 32.1336 50.1202 31.881 49.7907L30.2567 47.6714Z" fill="white"/>
<path d="M15.3312 15.0242C15.0468 14.7216 14.5711 14.7067 14.2683 14.9909C13.9657 15.2754 13.9508 15.7511 14.2351 16.0538C15.4349 17.3309 17.0606 18.0343 18.8129 18.0343C20.5651 18.0343 22.1908 17.3309 23.3904 16.0538C23.6747 15.7511 23.6599 15.2752 23.3573 14.9909C23.0545 14.7067 22.5787 14.7215 22.2944 15.0242C21.382 15.9955 20.1455 16.5305 18.8128 16.5305C17.4801 16.5305 16.2436 15.9956 15.3312 15.0242Z" fill="white"/>
<path d="M17.3607 11.4303V10.1357C17.3607 9.72032 17.024 9.38379 16.6088 9.38379C16.1936 9.38379 15.8569 9.72032 15.8569 10.1357V11.4303C15.8569 11.8456 16.1936 12.1821 16.6088 12.1821C17.024 12.1821 17.3607 11.8455 17.3607 11.4303Z" fill="white"/>
<path d="M21.5281 11.4303V10.1357C21.5281 9.72032 21.1915 9.38379 20.7763 9.38379C20.361 9.38379 20.0244 9.72032 20.0244 10.1357V11.4303C20.0244 11.8456 20.361 12.1821 20.7763 12.1821C21.1915 12.1821 21.5281 11.8455 21.5281 11.4303Z" fill="white"/>
<path d="M18.8125 27.5596C16.8842 27.5596 15.3154 29.1283 15.3154 31.0566C15.3154 32.985 16.8842 34.5537 18.8125 34.5537C20.7408 34.5537 22.3096 32.985 22.3096 31.0566C22.3096 29.1283 20.7408 27.5596 18.8125 27.5596ZM18.8125 33.05C17.7134 33.05 16.8192 32.1558 16.8192 31.0566C16.8192 29.9575 17.7134 29.0633 18.8125 29.0633C19.9116 29.0633 20.8058 29.9575 20.8058 31.0566C20.8058 32.1558 19.9116 33.05 18.8125 33.05Z" fill="white"/>
</g>
<defs>
<clipPath id="clip0_363_1504">
<rect width="51" height="51" fill="white"/>
</clipPath>
</defs>
</svg>
