<svg width="51" height="51" viewBox="0 0 51 51" fill="none" xmlns="http://www.w3.org/2000/svg">
<path d="M16.448 32.1182C17.9246 30.6416 17.9246 28.2385 16.448 26.7618C15.7324 26.0467 14.7815 25.6525 13.7698 25.6525C13.185 25.6525 12.6208 25.7848 12.1107 26.0342C10.3119 23.4607 9.36445 20.4491 9.36445 17.2814C9.36445 9.17456 15.6974 2.45871 23.7817 1.99179C24.3315 1.95989 24.751 1.48869 24.7195 0.939281C24.6876 0.389484 24.2164 -0.0287973 23.667 0.00155235C14.529 0.52956 7.37109 8.11972 7.37109 17.2814C7.37109 20.9366 8.4882 24.4086 10.6061 27.3576C9.63837 28.8268 9.80024 30.8268 11.0917 32.1182C11.8072 32.8334 12.7582 33.2275 13.7698 33.2275C14.7815 33.2275 15.7324 32.8334 16.448 32.1182ZM12.501 28.1716C12.8508 27.8218 13.3103 27.6467 13.7698 27.6467C14.229 27.6467 14.6885 27.8218 15.0383 28.1716C15.7379 28.8708 15.7379 30.0093 15.0383 30.7085C14.3387 31.4081 13.2006 31.4081 12.501 30.7085C11.8018 30.0093 11.8018 28.8712 12.501 28.1716Z" fill="white"/>
<path d="M40.0471 34.5314C39.4172 34.5314 38.8249 34.6956 38.3109 34.9836C37.8553 33.5388 36.5028 32.4883 34.9094 32.4883C33.9013 32.4883 32.9896 32.9089 32.3406 33.5836C32.1605 33.3968 31.9601 33.2299 31.7433 33.0855C34.0406 32.0572 36.1079 30.5296 37.7806 28.5946C40.4942 25.4545 41.9887 21.4367 41.9887 17.2815C41.9887 13.6283 40.8716 10.1544 38.7541 7.20501C39.7218 5.73578 39.56 3.7362 38.2681 2.44439C36.7915 0.967756 34.3888 0.967756 32.9118 2.44439C31.4352 3.92102 31.4352 6.32409 32.9118 7.80072C33.6503 8.53923 34.62 8.90849 35.59 8.90849C36.1585 8.90849 36.7261 8.78048 37.2479 8.52678C39.0475 11.1011 39.9954 14.115 39.9954 17.2815C39.9954 24.4915 35.1009 30.586 28.1994 32.1914V26.8265C32.1519 25.3674 34.8522 21.5468 34.8522 17.2815C34.8522 11.6726 30.2889 7.1093 24.6796 7.1093C19.0708 7.1093 14.5074 11.6723 14.5074 17.2815C14.5074 19.4951 15.2066 21.6001 16.5288 23.3682C17.6821 24.9102 19.2778 26.1078 21.068 26.7911V41.452L19.8159 39.3979C18.7638 37.6707 16.5673 37.1104 14.816 38.1213C13.1502 39.0831 12.5004 41.1936 13.3413 42.9344L17.0591 50.4452C17.2331 50.7966 17.5864 51.0001 17.9533 51.0001C18.1019 51.0001 18.2525 50.967 18.3945 50.8966C18.8879 50.6522 19.0898 50.0542 18.8459 49.5612L15.1319 42.0589C14.7471 41.2617 15.0459 40.2905 15.8128 39.8477C16.6054 39.3901 17.6377 39.6535 18.114 40.4352L21.2135 45.5212C21.4462 45.9025 21.9042 46.0826 22.3341 45.962C22.7641 45.8414 23.0614 45.4492 23.0614 45.0021V22.134C23.0614 21.2671 23.7668 20.562 24.6337 20.562C25.5006 20.562 26.2061 21.2671 26.2061 22.134V26.0763C26.2057 26.0833 26.2061 26.0903 26.2061 26.0977V41.0632C26.2061 41.6138 26.652 42.0597 27.2026 42.0597C27.7531 42.0597 28.1994 41.6138 28.1994 41.0632V36.054C28.1994 35.1871 28.9045 34.4816 29.7714 34.4816C30.6383 34.4816 31.3437 35.1871 31.3437 36.054V41.4259C31.3437 41.9765 31.79 42.4228 32.3402 42.4228C32.8908 42.4228 33.3371 41.9765 33.3371 41.4259V36.054C33.3371 35.1871 34.0425 34.4816 34.9094 34.4816C35.7764 34.4816 36.4814 35.1871 36.4814 36.054V41.4932C36.4814 42.0438 36.9277 42.4901 37.4783 42.4901C38.0289 42.4901 38.4748 42.0438 38.4748 41.4932V38.0971C38.4748 37.2302 39.1802 36.5248 40.0471 36.5248C40.914 36.5248 41.6195 37.2302 41.6195 38.0971V50.0028C41.6195 50.5534 42.0654 50.9997 42.6159 50.9997C43.1665 50.9997 43.6128 50.5534 43.6128 50.0028V38.0971C43.6128 36.131 42.0132 34.5314 40.0471 34.5314ZM34.3215 6.39141C33.6219 5.69181 33.6219 4.55369 34.3215 3.85409C34.6713 3.50429 35.1305 3.32959 35.59 3.32959C36.0495 3.32959 36.509 3.50429 36.8588 3.85409C37.558 4.55369 37.558 5.69181 36.8588 6.39141C36.1592 7.09062 35.0207 7.09062 34.3215 6.39141ZM16.5008 17.2815C16.5008 12.7715 20.17 9.10226 24.68 9.10226C29.1897 9.10226 32.8589 12.7715 32.8589 17.2815C32.8589 20.4573 30.9978 23.3269 28.1994 24.6658V22.134C28.1994 21.5744 28.0695 21.0445 27.8383 20.5725C28.7224 19.7204 29.2449 18.5325 29.2449 17.2815C29.2449 14.764 27.1971 12.7162 24.68 12.7162C22.1626 12.7162 20.1147 14.764 20.1147 17.2815C20.1147 18.4959 20.6093 19.6628 21.4595 20.5134C21.21 20.9997 21.068 21.5507 21.068 22.134V24.6238C18.2926 23.2674 16.5008 20.4546 16.5008 17.2815ZM22.8252 19.0628C22.3657 18.5873 22.1081 17.9574 22.1081 17.2815C22.1081 15.8632 23.2618 14.7096 24.6796 14.7096C26.0979 14.7096 27.2516 15.8632 27.2516 17.2815C27.2516 17.9671 26.973 18.62 26.4991 19.097C25.9559 18.762 25.317 18.5687 24.6337 18.5687C23.9738 18.5687 23.3559 18.7492 22.8252 19.0628Z" fill="white"/>
<path d="M28.2094 2.34882C28.4716 2.34882 28.7288 2.24221 28.914 2.05661C29.0996 1.8714 29.2062 1.6142 29.2062 1.35195C29.2062 1.09009 29.0996 0.832893 28.914 0.647293C28.7288 0.462082 28.4716 0.355469 28.2094 0.355469C27.9475 0.355469 27.6903 0.462082 27.5051 0.647293C27.3195 0.832893 27.2129 1.09009 27.2129 1.35195C27.2129 1.6142 27.3195 1.8714 27.5051 2.05661C27.6903 2.24221 27.9475 2.34882 28.2094 2.34882Z" fill="white"/>
</svg>
