<svg width="22" height="20" viewBox="0 0 22 20" fill="none" xmlns="http://www.w3.org/2000/svg">
<path d="M5.78947 12.6312C4.12632 12.6312 2.73368 13.747 2.27684 15.2628H0V17.3681H2.27684C2.73368 18.8839 4.12632 19.9996 5.78947 19.9996C7.45263 19.9996 8.84526 18.8839 9.30211 17.3681H21.0526V15.2628H9.30211C8.84526 13.747 7.45263 12.6312 5.78947 12.6312ZM5.78947 17.8944C4.91895 17.8944 4.21053 17.186 4.21053 16.3154C4.21053 15.4449 4.91895 14.7365 5.78947 14.7365C6.66 14.7365 7.36842 15.4449 7.36842 16.3154C7.36842 17.186 6.66 17.8944 5.78947 17.8944ZM15.2632 6.31543C13.6 6.31543 12.2074 7.43122 11.7505 8.94701H0V11.0523H11.7505C12.2074 12.5681 13.6 13.6839 15.2632 13.6839C16.9263 13.6839 18.3189 12.5681 18.7758 11.0523H21.0526V8.94701H18.7758C18.3189 7.43122 16.9263 6.31543 15.2632 6.31543ZM15.2632 11.5786C14.3926 11.5786 13.6842 10.8702 13.6842 9.99964C13.6842 9.12911 14.3926 8.42069 15.2632 8.42069C16.1337 8.42069 16.8421 9.12911 16.8421 9.99964C16.8421 10.8702 16.1337 11.5786 15.2632 11.5786Z" fill="white"/>
<path d="M11.4074 2.63158C10.9505 1.11579 9.55789 0 7.89474 0C6.23158 0 4.83895 1.11579 4.3821 2.63158H0V4.73684H4.3821C4.83895 6.25263 6.23158 7.36842 7.89474 7.36842C9.55789 7.36842 10.9505 6.25263 11.4074 4.73684H21.1842V2.63158H11.4074ZM7.89474 5.26316C7.02421 5.26316 6.31579 4.55474 6.31579 3.68421C6.31579 2.81368 7.02421 2.10526 7.89474 2.10526C8.76526 2.10526 9.47368 2.81368 9.47368 3.68421C9.47368 4.55474 8.76526 5.26316 7.89474 5.26316Z" fill="white"/>
</svg>
